<svg version="1.1" id="Layer_1" xmlns="http://www.w3.org/2000/svg" xmlns:xlink="http://www.w3.org/1999/xlink" x="0px" y="0px"
	 width="100%" viewBox="0 0 370 59" enable-background="new 0 0 370 59" xml:space="preserve">
<path fill="#FDFDFC" opacity="1.000000" stroke="none" 
	d="
M264.000000,60.000000 
	C176.000031,60.000000 88.500053,60.000000 1.000059,60.000000 
	C1.000039,40.333366 1.000039,20.666731 1.000020,1.000072 
	C124.333260,1.000048 247.666519,1.000048 370.999817,1.000024 
	C370.999878,20.666592 370.999878,40.333183 370.999939,59.999886 
	C335.500000,60.000000 300.000000,60.000000 264.000000,60.000000 
M113.300911,4.733833 
	C115.217499,10.465894 117.281334,16.154358 118.996193,21.946144 
	C120.047592,25.497122 121.841423,26.964134 124.608276,25.908056 
	C126.409088,23.481165 127.750969,21.672760 129.518188,19.291138 
	C130.827866,21.664351 131.514511,22.946785 132.236649,24.208902 
	C133.585739,26.566723 137.447479,26.950720 138.408279,24.575682 
	C141.037567,18.076281 143.277054,11.419193 145.727097,4.669726 
	C138.452805,4.100847 138.452805,4.100847 135.349899,16.185583 
	C134.125748,12.621762 133.294724,9.591315 132.007126,6.769176 
	C131.524902,5.712247 130.030914,4.632667 128.902313,4.519437 
	C128.105301,4.439473 126.876137,5.820422 126.328163,6.817502 
	C125.626457,8.094286 125.453148,9.653291 124.981293,11.067033 
	C124.569244,12.301599 124.059021,13.503397 123.530228,14.881064 
	C120.022438,11.297620 122.676453,2.732121 113.300911,4.733833 
M79.741158,24.827660 
	C81.591927,25.313000 83.442688,25.798338 85.603523,26.364990 
	C85.603523,18.588251 85.603523,11.687289 85.603523,5.025464 
	C78.682083,1.767985 77.130020,8.443177 73.537857,11.178254 
	C70.134132,8.065183 68.588226,1.883389 61.922531,4.981046 
	C61.922531,11.827340 61.922531,18.748489 61.922531,25.669632 
	C63.918095,25.669632 65.653809,25.669632 67.866890,25.669632 
	C67.866890,21.819431 67.866890,18.275558 67.866890,13.835238 
	C70.159073,16.350887 71.772285,18.121370 74.448616,21.058613 
	C76.005852,18.611931 77.319626,16.547777 78.633392,14.483623 
	C78.985268,14.678369 79.337151,14.873115 79.689026,15.067861 
	C79.689026,18.030500 79.689026,20.993139 79.741158,24.827660 
M306.133209,4.339390 
	C304.186096,4.376689 302.023193,3.842313 302.094269,7.110379 
	C302.227295,13.228530 302.132568,19.351635 302.132568,25.726969 
	C304.300110,25.726969 306.029785,25.726969 308.344635,25.726969 
	C308.344635,21.925713 308.344635,18.241663 308.344635,13.634422 
	C310.721954,16.261419 312.354736,18.065691 314.180817,20.083591 
	C316.114166,18.008280 317.822845,16.174105 320.293304,13.522228 
	C320.293304,18.382296 320.293304,22.110115 320.293304,26.039188 
	C322.520721,25.936829 324.255280,25.857121 325.761475,25.787905 
	C325.761475,18.335314 325.761475,11.427819 325.761475,5.001556 
	C318.903442,1.941920 317.807983,8.398210 314.681427,10.918576 
	C312.048340,8.691889 309.487793,6.526530 306.133209,4.339390 
M13.616381,4.341643 
	C12.167714,4.423287 10.719047,4.504931 9.246437,4.587924 
	C9.246437,11.864371 9.246437,18.778545 9.246437,25.735382 
	C11.264264,25.735382 13.011106,25.735382 14.847020,25.735382 
	C15.039702,23.333675 15.212883,21.175058 15.412549,18.686308 
	C25.581100,25.883657 25.581100,25.883657 28.500645,25.243778 
	C26.914640,23.048380 25.377516,20.920645 23.840393,18.792908 
	C24.359943,18.853411 24.879494,18.913914 25.399042,18.974415 
	C26.053696,15.784558 27.662155,12.428090 27.140831,9.443652 
	C26.346622,4.896995 22.020597,4.392230 18.023951,4.336369 
	C16.860207,4.320103 15.695975,4.338662 13.616381,4.341643 
M281.075165,9.364881 
	C279.579773,7.682574 278.341003,5.531532 276.481842,4.513694 
	C275.537872,3.996879 272.617310,5.090185 272.061218,6.195572 
	C268.878815,12.521603 266.138336,19.069946 263.158966,25.741764 
	C266.478271,26.007835 268.766907,26.354744 271.304993,23.395367 
	C272.639496,21.839312 277.618530,22.960829 280.808197,23.595444 
	C283.076477,24.046741 285.104828,25.703974 287.240295,26.822992 
	C287.574707,26.342419 287.909149,25.861843 288.243591,25.381269 
	C285.969421,20.268770 283.695282,15.156270 281.075165,9.364881 
M342.581360,7.408396 
	C341.194458,13.882208 343.772461,17.610550 349.713226,18.033052 
	C350.824341,18.112074 351.872223,19.080425 352.949280,19.638361 
	C351.754517,20.113827 350.541534,21.016293 349.369232,20.966156 
	C347.543518,20.888081 345.745483,20.163052 343.785492,19.674778 
	C342.995544,20.553499 342.110535,21.537973 341.088470,22.674873 
	C344.967743,26.968355 349.648468,27.503689 354.779175,25.992064 
	C358.137146,25.002733 360.259583,22.934208 360.014862,19.126171 
	C359.769775,15.312346 357.324951,13.709865 353.937714,12.975673 
	C351.909607,12.536076 349.908325,11.972631 346.776520,11.182765 
	C351.369080,8.850412 356.747375,12.205898 358.412048,6.158008 
	C353.063843,3.272361 347.999207,2.765800 342.581360,7.408396 
M220.734238,20.902832 
	C220.151398,19.623358 219.135651,18.366961 219.065979,17.060131 
	C218.847595,12.963579 218.985687,8.848022 218.985687,4.574439 
	C216.645889,4.574439 214.883392,4.574439 212.828583,4.574439 
	C212.828583,11.697317 212.828583,18.606407 212.828583,25.736179 
	C218.217728,25.736179 223.449936,25.736179 228.789093,25.736179 
	C228.789093,24.087523 228.789093,22.684891 228.789093,20.910135 
	C226.263184,20.910135 223.967468,20.910135 220.734238,20.902832 
M186.637756,25.980152 
	C190.407486,25.980152 194.177216,25.980152 198.157761,25.980152 
	C198.157761,24.147152 198.157761,22.740007 198.157761,20.802961 
	C194.731796,20.802961 191.517685,20.802961 187.843964,20.802961 
	C187.843964,15.065147 187.843964,9.851598 187.843964,4.328766 
	C185.616791,4.436847 183.902405,4.520042 182.027847,4.611011 
	C182.027847,10.949291 182.186905,16.749542 181.962021,22.534868 
	C181.846344,25.511314 183.022751,26.362997 186.637756,25.980152 
M244.568069,25.964058 
	C246.027939,25.964058 247.487793,25.964058 248.913879,25.964058 
	C248.913879,18.594425 248.913879,11.599140 248.913879,4.295423 
	C246.770538,4.414856 245.054321,4.510489 243.685806,4.586747 
	C243.685806,12.018496 243.685806,18.890526 244.568069,25.964058 
M159.965622,12.573820 
	C159.965622,16.990713 159.965622,21.407604 159.965622,26.058443 
	C162.328323,25.928619 164.051422,25.833941 165.616211,25.747961 
	C165.616211,18.375975 165.616211,11.505205 165.616211,4.756251 
	C163.551788,4.756251 161.847763,4.756251 159.965607,4.756251 
	C159.965607,7.312339 159.965607,9.461548 159.965622,12.573820 
M77.232147,52.617825 
	C78.220421,52.302658 79.208687,51.987488 80.196960,51.672321 
	C80.122986,51.288132 80.049019,50.903946 79.975044,50.519760 
	C78.347969,50.238708 76.720901,49.957661 73.976860,49.483673 
	C76.568993,48.629208 78.069580,48.134556 80.953552,47.183891 
	C77.989876,46.286266 76.488228,45.831455 73.749527,45.001968 
	C76.739449,44.361912 78.401039,44.006210 80.062622,43.650513 
	C80.007965,43.242798 79.953308,42.835079 79.898659,42.427364 
	C77.437790,42.427364 74.976929,42.427364 72.249466,42.427364 
	C72.249466,45.651386 72.249466,48.873135 72.249466,52.350853 
	C73.787605,52.453342 75.082352,52.539616 77.232147,52.617825 
M246.707672,50.301037 
	C246.701096,49.600197 246.465225,48.796921 246.725128,48.215122 
	C248.431412,44.395515 247.367874,42.461037 243.151169,42.055202 
	C241.898804,41.934669 240.625031,42.036610 239.413910,42.036610 
	C239.413910,45.807388 239.413910,49.080448 239.413910,52.353512 
	C239.694992,52.408699 239.976059,52.463890 240.257141,52.519081 
	C240.849045,51.392563 241.440948,50.266045 242.180786,48.857956 
	C243.480484,50.087620 244.636002,51.180859 245.791504,52.274117 
	C246.208038,51.793018 246.624557,51.311924 246.707672,50.301037 
M141.181366,45.916027 
	C140.622635,42.316528 138.267273,40.942936 135.266632,42.462685 
	C134.067200,43.070164 133.680496,45.847755 133.498230,47.694225 
	C133.381607,48.875412 134.316223,50.160374 135.208862,52.546295 
	C138.876511,54.121914 140.504684,52.994747 141.181366,45.916027 
M291.359192,51.058182 
	C292.927368,51.501495 294.495514,51.944809 296.850708,52.610611 
	C295.291443,49.032909 294.218109,46.118813 292.706329,43.453407 
	C292.373718,42.866985 289.657959,42.722980 289.443970,43.124237 
	C287.905304,46.009182 286.728790,49.087288 285.207458,52.641243 
	C287.655945,51.930550 289.137817,51.500423 291.359192,51.058182 
M193.706589,43.825390 
	C192.565765,41.953083 191.272552,40.737450 189.862198,43.510834 
	C188.447266,46.293232 187.243317,49.182930 186.073685,51.747581 
	C189.988693,51.747581 193.307007,51.747581 197.014404,51.747581 
	C196.060944,49.494125 195.012360,47.015842 193.706589,43.825390 
M253.005524,49.356319 
	C252.776031,50.327190 252.546555,51.298061 252.441299,51.743374 
	C256.103149,51.743374 259.419373,51.743374 262.893127,51.743374 
	C262.627014,50.944252 262.437378,49.818066 261.905609,48.887348 
	C260.577301,46.562428 259.093628,44.326263 257.672333,42.054478 
	C256.230225,44.271961 254.788132,46.489445 253.005524,49.356319 
M88.623825,44.127861 
	C89.958641,44.127861 91.293465,44.127861 92.628281,44.127861 
	C90.013016,41.632233 86.722549,40.669956 85.587662,43.896355 
	C85.053612,45.414635 88.095383,48.190712 89.206688,49.915520 
	C88.759567,49.954868 86.916428,50.117062 85.073296,50.279259 
	C85.026131,50.815113 84.978973,51.350967 84.931816,51.886822 
	C87.073845,52.067654 89.248413,52.524635 91.340096,52.278149 
	C92.063133,52.192944 93.291641,49.658714 93.074669,49.438179 
	C91.754105,48.095989 90.050720,47.139481 88.554489,45.954052 
	C88.224686,45.692749 88.214790,45.027668 88.623825,44.127861 
M217.117813,45.280796 
	C218.669342,44.637840 220.220871,43.994884 222.519608,43.042282 
	C219.476685,41.812332 216.455734,40.581654 215.340988,43.666679 
	C214.772552,45.239845 217.427551,47.977768 218.637604,50.211498 
	C218.020294,50.211498 216.331665,50.211498 214.643051,50.211498 
	C214.558640,50.721107 214.474213,51.230721 214.389801,51.740330 
	C216.513489,51.970314 218.670486,52.505718 220.744431,52.279552 
	C221.570862,52.189430 222.213699,50.415668 222.940109,49.408356 
	C221.178467,48.233456 219.416840,47.058556 217.117813,45.280796 
M161.828339,48.021458 
	C160.114166,48.933418 158.400009,49.845375 156.685852,50.757336 
	C157.265533,51.308254 157.845230,51.859177 158.424911,52.410095 
	C160.937347,52.410095 163.449799,52.410095 165.962234,52.410095 
	C165.982437,52.082321 166.002655,51.754547 166.022858,51.426773 
	C164.919785,51.166039 163.816727,50.905304 162.409256,50.572617 
	C164.846817,48.266617 168.240601,46.086765 164.844025,42.816578 
	C162.842331,40.889389 160.338791,41.586636 159.080521,43.933952 
	C159.012695,46.795677 166.483810,40.788486 161.828339,48.021458 
M150.079773,50.746891 
	C148.768417,50.576050 147.457077,50.405212 146.145721,50.234371 
	C146.016937,50.765751 145.888138,51.297131 145.759338,51.828510 
	C147.471390,52.170792 149.338013,53.074444 150.841797,52.660370 
	C151.864853,52.378666 152.920837,50.282913 152.998291,48.942646 
	C153.122177,46.799248 152.445740,44.609596 152.034348,41.969166 
	C150.518188,42.037712 148.263107,42.139664 146.008026,42.241615 
	C145.980911,42.618057 145.953812,42.994499 145.926712,43.370941 
	C146.924789,43.841553 147.922867,44.312168 148.920944,44.782784 
	C145.783035,47.779736 151.130386,48.084923 150.079773,50.746891 
M203.856842,52.552780 
	C205.746078,51.931046 208.922348,51.710598 209.266418,50.607075 
	C210.073349,48.019085 209.524567,45.008385 209.524567,42.168793 
	C208.929810,42.178333 208.335052,42.187874 207.740295,42.197411 
	C207.740295,44.050587 208.050812,45.978729 207.628036,47.729839 
	C207.358841,48.844898 206.002075,49.697384 205.132950,50.667599 
	C204.433868,49.708885 203.383087,48.838852 203.114029,47.771725 
	C202.652664,45.941776 202.679810,43.988663 202.501846,42.087261 
	C202.028671,42.164162 201.555511,42.241062 201.082336,42.317963 
	C201.178024,45.700893 198.956970,49.422798 203.856842,52.552780 
M267.075684,44.796921 
	C267.075684,47.220192 267.075684,49.643463 267.075684,52.762066 
	C270.073914,52.556805 272.498108,52.390842 274.922272,52.224880 
	C274.930664,51.717976 274.939056,51.211067 274.947449,50.704159 
	C273.350372,50.317154 271.753265,49.930149 270.009430,49.507584 
	C270.009430,47.497192 270.112305,45.685822 269.954132,43.897533 
	C269.898132,43.264027 269.206055,42.686775 268.804352,42.083843 
	C268.230865,42.689137 267.657379,43.294426 267.075684,44.796921 
M102.858353,51.676247 
	C103.442940,48.596497 104.027527,45.516747 104.622749,42.380981 
	C102.979622,42.380981 100.204323,42.380981 98.172928,42.380981 
	C98.895096,44.777798 99.417038,46.963951 100.230820,49.035454 
	C100.695801,50.219086 101.636063,51.216007 102.858353,51.676247 
M232.005814,49.126278 
	C232.699844,46.897434 233.393860,44.668587 234.030518,42.623997 
	C231.977829,42.623997 229.147034,42.623997 227.615005,42.623997 
	C228.686203,46.112087 229.664780,49.298542 231.071686,53.879730 
	C231.603256,51.636017 231.803802,50.789532 232.005814,49.126278 
M100.718643,25.067278 
	C101.610771,22.477121 101.049644,20.597143 97.976219,20.972481 
	C96.936508,21.099453 96.072220,22.662954 95.127762,23.569963 
	C96.794373,24.264410 98.460976,24.958858 100.718643,25.067278 
M127.054787,49.318008 
	C127.054787,46.929569 127.054787,44.541130 127.054787,41.360695 
	C125.121872,42.320351 123.959923,42.897240 123.665985,43.043171 
	C124.443703,46.880527 125.064819,49.945164 125.685936,53.009800 
	C125.990799,52.968086 126.295670,52.926369 126.600533,52.884655 
	C126.751373,52.000256 126.902206,51.115856 127.054787,49.318008 
M41.164707,25.945900 
	C41.590393,24.611605 42.016079,23.277311 42.441769,21.943018 
	C41.243572,21.607393 39.980034,20.884293 38.870010,21.071493 
	C38.122005,21.197641 36.924290,23.180983 37.071320,23.352352 
	C37.988117,24.420906 39.227448,25.212736 41.164707,25.945900 
z"/>
<path fill="#51382B" opacity="1.000000" stroke="none" 
	d="
M113.659973,4.571321 
	C122.676453,2.732121 120.022438,11.297620 123.530228,14.881064 
	C124.059021,13.503397 124.569244,12.301599 124.981293,11.067033 
	C125.453148,9.653291 125.626457,8.094286 126.328163,6.817502 
	C126.876137,5.820422 128.105301,4.439473 128.902313,4.519437 
	C130.030914,4.632667 131.524902,5.712247 132.007126,6.769176 
	C133.294724,9.591315 134.125748,12.621762 135.349899,16.185583 
	C138.452805,4.100847 138.452805,4.100847 145.727097,4.669726 
	C143.277054,11.419193 141.037567,18.076281 138.408279,24.575682 
	C137.447479,26.950720 133.585739,26.566723 132.236649,24.208902 
	C131.514511,22.946785 130.827866,21.664351 129.518188,19.291138 
	C127.750969,21.672760 126.409088,23.481165 124.608276,25.908056 
	C121.841423,26.964134 120.047592,25.497122 118.996193,21.946144 
	C117.281334,16.154358 115.217499,10.465894 113.659973,4.571321 
z"/>
<path fill="#50382A" opacity="1.000000" stroke="none" 
	d="
M79.715088,24.391720 
	C79.689026,20.993139 79.689026,18.030500 79.689026,15.067861 
	C79.337151,14.873115 78.985268,14.678369 78.633392,14.483623 
	C77.319626,16.547777 76.005852,18.611931 74.448616,21.058613 
	C71.772285,18.121370 70.159073,16.350887 67.866890,13.835238 
	C67.866890,18.275558 67.866890,21.819431 67.866890,25.669632 
	C65.653809,25.669632 63.918095,25.669632 61.922531,25.669632 
	C61.922531,18.748489 61.922531,11.827340 61.922531,4.981046 
	C68.588226,1.883389 70.134132,8.065183 73.537857,11.178254 
	C77.130020,8.443177 78.682083,1.767985 85.603523,5.025464 
	C85.603523,11.687289 85.603523,18.588251 85.603523,26.364990 
	C83.442688,25.798338 81.591927,25.313000 79.715088,24.391720 
z"/>
<path fill="#4F362A" opacity="1.000000" stroke="none" 
	d="
M306.530212,4.350281 
	C309.487793,6.526530 312.048340,8.691889 314.681427,10.918576 
	C317.807983,8.398210 318.903442,1.941920 325.761475,5.001556 
	C325.761475,11.427819 325.761475,18.335314 325.761475,25.787905 
	C324.255280,25.857121 322.520721,25.936829 320.293304,26.039188 
	C320.293304,22.110115 320.293304,18.382296 320.293304,13.522228 
	C317.822845,16.174105 316.114166,18.008280 314.180817,20.083591 
	C312.354736,18.065691 310.721954,16.261419 308.344635,13.634422 
	C308.344635,18.241663 308.344635,21.925713 308.344635,25.726969 
	C306.029785,25.726969 304.300110,25.726969 302.132568,25.726969 
	C302.132568,19.351635 302.227295,13.228530 302.094269,7.110379 
	C302.023193,3.842313 304.186096,4.376689 306.530212,4.350281 
z"/>
<path fill="#4E3629" opacity="1.000000" stroke="none" 
	d="
M14.074174,4.341450 
	C15.695975,4.338662 16.860207,4.320103 18.023951,4.336369 
	C22.020597,4.392230 26.346622,4.896995 27.140831,9.443652 
	C27.662155,12.428090 26.053696,15.784558 25.399042,18.974415 
	C24.879494,18.913914 24.359943,18.853411 23.840393,18.792908 
	C25.377516,20.920645 26.914640,23.048380 28.500645,25.243778 
	C25.581100,25.883657 25.581100,25.883657 15.412549,18.686308 
	C15.212883,21.175058 15.039702,23.333675 14.847020,25.735382 
	C13.011106,25.735382 11.264264,25.735382 9.246437,25.735382 
	C9.246437,18.778545 9.246437,11.864371 9.246437,4.587924 
	C10.719047,4.504931 12.167714,4.423287 14.074174,4.341450 
M18.220772,9.126843 
	C13.467733,8.881022 15.221202,11.845102 15.531642,15.283837 
	C17.990511,14.193330 19.893946,13.349157 21.797380,12.504983 
	C20.881111,11.384370 19.964840,10.263757 18.220772,9.126843 
z"/>
<path fill="#50382B" opacity="1.000000" stroke="none" 
	d="
M281.248169,9.704326 
	C283.695282,15.156270 285.969421,20.268770 288.243591,25.381269 
	C287.909149,25.861843 287.574707,26.342419 287.240295,26.822992 
	C285.104828,25.703974 283.076477,24.046741 280.808197,23.595444 
	C277.618530,22.960829 272.639496,21.839312 271.304993,23.395367 
	C268.766907,26.354744 266.478271,26.007835 263.158966,25.741764 
	C266.138336,19.069946 268.878815,12.521603 272.061218,6.195572 
	C272.617310,5.090185 275.537872,3.996879 276.481842,4.513694 
	C278.341003,5.531532 279.579773,7.682574 281.248169,9.704326 
z"/>
<path fill="#4E3429" opacity="1.000000" stroke="none" 
	d="
M342.818390,7.080271 
	C347.999207,2.765800 353.063843,3.272361 358.412048,6.158008 
	C356.747375,12.205898 351.369080,8.850412 346.776520,11.182765 
	C349.908325,11.972631 351.909607,12.536076 353.937714,12.975673 
	C357.324951,13.709865 359.769775,15.312346 360.014862,19.126171 
	C360.259583,22.934208 358.137146,25.002733 354.779175,25.992064 
	C349.648468,27.503689 344.967743,26.968355 341.088470,22.674873 
	C342.110535,21.537973 342.995544,20.553499 343.785492,19.674778 
	C345.745483,20.163052 347.543518,20.888081 349.369232,20.966156 
	C350.541534,21.016293 351.754517,20.113827 352.949280,19.638363 
	C351.872223,19.080425 350.824341,18.112074 349.713226,18.033052 
	C343.772461,17.610550 341.194458,13.882208 342.818390,7.080271 
z"/>
<path fill="#4B3224" opacity="1.000000" stroke="none" 
	d="
M221.203003,20.906483 
	C223.967468,20.910135 226.263184,20.910135 228.789093,20.910135 
	C228.789093,22.684891 228.789093,24.087523 228.789093,25.736179 
	C223.449936,25.736179 218.217728,25.736179 212.828583,25.736179 
	C212.828583,18.606407 212.828583,11.697317 212.828583,4.574439 
	C214.883392,4.574439 216.645889,4.574439 218.985687,4.574439 
	C218.985687,8.848022 218.847595,12.963579 219.065979,17.060131 
	C219.135651,18.366961 220.151398,19.623358 221.203003,20.906483 
z"/>
<path fill="#4B3427" opacity="1.000000" stroke="none" 
	d="
M186.160217,25.979992 
	C183.022751,26.362997 181.846344,25.511314 181.962021,22.534868 
	C182.186905,16.749542 182.027847,10.949291 182.027847,4.611011 
	C183.902405,4.520042 185.616791,4.436847 187.843964,4.328766 
	C187.843964,9.851598 187.843964,15.065147 187.843964,20.802961 
	C191.517685,20.802961 194.731796,20.802961 198.157761,20.802961 
	C198.157761,22.740007 198.157761,24.147152 198.157761,25.980152 
	C194.177216,25.980152 190.407486,25.980152 186.160217,25.979992 
z"/>
<path fill="#51382C" opacity="1.000000" stroke="none" 
	d="
M244.126938,25.863308 
	C243.685806,18.890526 243.685806,12.018496 243.685806,4.586747 
	C245.054321,4.510489 246.770538,4.414856 248.913879,4.295423 
	C248.913879,11.599140 248.913879,18.594425 248.913879,25.964058 
	C247.487793,25.964058 246.027939,25.964058 244.126938,25.863308 
z"/>
<path fill="#4C362A" opacity="1.000000" stroke="none" 
	d="
M159.965607,12.092288 
	C159.965607,9.461548 159.965607,7.312339 159.965607,4.756251 
	C161.847763,4.756251 163.551788,4.756251 165.616211,4.756251 
	C165.616211,11.505205 165.616211,18.375975 165.616211,25.747961 
	C164.051422,25.833941 162.328323,25.928619 159.965622,26.058443 
	C159.965622,21.407604 159.965622,16.990713 159.965607,12.092288 
z"/>
<path fill="#5F5149" opacity="1.000000" stroke="none" 
	d="
M76.804626,52.621857 
	C75.082352,52.539616 73.787605,52.453342 72.249466,52.350853 
	C72.249466,48.873135 72.249466,45.651386 72.249466,42.427364 
	C74.976929,42.427364 77.437790,42.427364 79.898659,42.427364 
	C79.953308,42.835079 80.007965,43.242798 80.062622,43.650513 
	C78.401039,44.006210 76.739449,44.361912 73.749527,45.001968 
	C76.488228,45.831455 77.989876,46.286266 80.953552,47.183891 
	C78.069580,48.134556 76.568993,48.629208 73.976860,49.483673 
	C76.720901,49.957661 78.347969,50.238708 79.975044,50.519760 
	C80.049019,50.903946 80.122986,51.288132 80.196960,51.672321 
	C79.208687,51.987488 78.220421,52.302658 76.804626,52.621857 
z"/>
<path fill="#4D3C34" opacity="1.000000" stroke="none" 
	d="
M246.874374,50.565933 
	C246.624557,51.311924 246.208038,51.793018 245.791504,52.274109 
	C244.636002,51.180859 243.480484,50.087620 242.180786,48.857956 
	C241.440948,50.266045 240.849045,51.392563 240.257141,52.519081 
	C239.976059,52.463890 239.694992,52.408699 239.413910,52.353512 
	C239.413910,49.080448 239.413910,45.807388 239.413910,42.036610 
	C240.625031,42.036610 241.898804,41.934669 243.151169,42.055202 
	C247.367874,42.461037 248.431412,44.395515 246.725128,48.215122 
	C246.465225,48.796921 246.701096,49.600197 246.874374,50.565933 
z"/>
<path fill="#514037" opacity="1.000000" stroke="none" 
	d="
M141.241592,46.282375 
	C140.504684,52.994747 138.876511,54.121914 135.208862,52.546295 
	C134.316223,50.160374 133.381607,48.875412 133.498230,47.694225 
	C133.680496,45.847755 134.067200,43.070164 135.266632,42.462685 
	C138.267273,40.942936 140.622635,42.316528 141.241592,46.282375 
z"/>
<path fill="#544239" opacity="1.000000" stroke="none" 
	d="
M290.989441,51.064240 
	C289.137817,51.500423 287.655945,51.930550 285.207458,52.641243 
	C286.728790,49.087288 287.905304,46.009182 289.443970,43.124237 
	C289.657959,42.722980 292.373718,42.866985 292.706329,43.453407 
	C294.218109,46.118813 295.291443,49.032909 296.850708,52.610611 
	C294.495514,51.944809 292.927368,51.501495 290.989441,51.064240 
z"/>
<path fill="#53423A" opacity="1.000000" stroke="none" 
	d="
M193.835175,44.181473 
	C195.012360,47.015842 196.060944,49.494125 197.014404,51.747581 
	C193.307007,51.747581 189.988693,51.747581 186.073685,51.747581 
	C187.243317,49.182930 188.447266,46.293232 189.862198,43.510834 
	C191.272552,40.737450 192.565765,41.953083 193.835175,44.181473 
z"/>
<path fill="#534139" opacity="1.000000" stroke="none" 
	d="
M253.175781,49.031624 
	C254.788132,46.489445 256.230225,44.271961 257.672333,42.054482 
	C259.093628,44.326263 260.577301,46.562428 261.905609,48.887348 
	C262.437378,49.818066 262.627014,50.944252 262.893127,51.743374 
	C259.419373,51.743374 256.103149,51.743374 252.441299,51.743374 
	C252.546555,51.298061 252.776031,50.327190 253.175781,49.031624 
z"/>
<path fill="#52443D" opacity="1.000000" stroke="none" 
	d="
M88.340706,44.338188 
	C88.214790,45.027668 88.224686,45.692749 88.554489,45.954052 
	C90.050720,47.139481 91.754105,48.095989 93.074669,49.438179 
	C93.291641,49.658714 92.063133,52.192944 91.340096,52.278149 
	C89.248413,52.524635 87.073845,52.067654 84.931816,51.886822 
	C84.978973,51.350967 85.026131,50.815113 85.073296,50.279259 
	C86.916428,50.117062 88.759567,49.954868 89.206688,49.915520 
	C88.095383,48.190712 85.053612,45.414635 85.587662,43.896355 
	C86.722549,40.669956 90.013016,41.632233 92.628281,44.127861 
	C91.293465,44.127861 89.958641,44.127861 88.340706,44.338188 
z"/>
<path fill="#4C3E37" opacity="1.000000" stroke="none" 
	d="
M217.386505,45.582222 
	C219.416840,47.058556 221.178467,48.233456 222.940109,49.408356 
	C222.213699,50.415668 221.570862,52.189430 220.744431,52.279552 
	C218.670486,52.505718 216.513489,51.970314 214.389801,51.740330 
	C214.474213,51.230721 214.558640,50.721107 214.643051,50.211498 
	C216.331665,50.211498 218.020294,50.211498 218.637604,50.211498 
	C217.427551,47.977768 214.772552,45.239845 215.340988,43.666679 
	C216.455734,40.581654 219.476685,41.812332 222.519608,43.042282 
	C220.220871,43.994884 218.669342,44.637840 217.386505,45.582222 
z"/>
<path fill="#51433C" opacity="1.000000" stroke="none" 
	d="
M162.135849,47.771214 
	C166.483810,40.788486 159.012695,46.795677 159.080521,43.933952 
	C160.338791,41.586636 162.842331,40.889389 164.844025,42.816578 
	C168.240601,46.086765 164.846817,48.266617 162.409256,50.572617 
	C163.816727,50.905304 164.919785,51.166039 166.022858,51.426773 
	C166.002655,51.754547 165.982437,52.082321 165.962234,52.410095 
	C163.449799,52.410095 160.937347,52.410095 158.424911,52.410095 
	C157.845230,51.859177 157.265533,51.308254 156.685852,50.757336 
	C158.400009,49.845375 160.114166,48.933418 162.135849,47.771214 
z"/>
<path fill="#4A3A33" opacity="1.000000" stroke="none" 
	d="
M150.365692,50.492607 
	C151.130386,48.084923 145.783035,47.779736 148.920944,44.782784 
	C147.922867,44.312168 146.924789,43.841553 145.926712,43.370941 
	C145.953812,42.994499 145.980911,42.618057 146.008026,42.241615 
	C148.263107,42.139664 150.518188,42.037712 152.034348,41.969166 
	C152.445740,44.609596 153.122177,46.799248 152.998291,48.942646 
	C152.920837,50.282913 151.864853,52.378666 150.841797,52.660370 
	C149.338013,53.074444 147.471390,52.170792 145.759338,51.828510 
	C145.888138,51.297131 146.016937,50.765751 146.145721,50.234371 
	C147.457077,50.405212 148.768417,50.576050 150.365692,50.492607 
z"/>
<path fill="#4A3C34" opacity="1.000000" stroke="none" 
	d="
M203.483871,52.382362 
	C198.956970,49.422798 201.178024,45.700893 201.082336,42.317963 
	C201.555511,42.241062 202.028671,42.164162 202.501846,42.087261 
	C202.679810,43.988663 202.652664,45.941776 203.114029,47.771725 
	C203.383087,48.838852 204.433868,49.708885 205.132950,50.667603 
	C206.002075,49.697384 207.358841,48.844898 207.628036,47.729839 
	C208.050812,45.978729 207.740295,44.050587 207.740295,42.197411 
	C208.335052,42.187874 208.929810,42.178333 209.524567,42.168793 
	C209.524567,45.008385 210.073349,48.019085 209.266418,50.607075 
	C208.922348,51.710598 205.746078,51.931046 203.483871,52.382362 
z"/>
<path fill="#6C5A54" opacity="1.000000" stroke="none" 
	d="
M267.079773,44.348320 
	C267.657379,43.294426 268.230865,42.689137 268.804352,42.083839 
	C269.206055,42.686775 269.898132,43.264027 269.954132,43.897533 
	C270.112305,45.685822 270.009430,47.497192 270.009430,49.507584 
	C271.753265,49.930149 273.350372,50.317154 274.947449,50.704159 
	C274.939056,51.211067 274.930664,51.717976 274.922272,52.224880 
	C272.498108,52.390842 270.073914,52.556805 267.075684,52.762066 
	C267.075684,49.643463 267.075684,47.220192 267.079773,44.348320 
z"/>
<path fill="#5E514A" opacity="1.000000" stroke="none" 
	d="
M102.610336,51.986618 
	C101.636063,51.216007 100.695801,50.219086 100.230820,49.035454 
	C99.417038,46.963951 98.895096,44.777798 98.172928,42.380981 
	C100.204323,42.380981 102.979622,42.380981 104.622749,42.380981 
	C104.027527,45.516747 103.442940,48.596497 102.610336,51.986618 
z"/>
<path fill="#4E3F37" opacity="1.000000" stroke="none" 
	d="
M232.005081,49.534664 
	C231.803802,50.789532 231.603256,51.636017 231.071686,53.879730 
	C229.664780,49.298542 228.686203,46.112087 227.615005,42.623997 
	C229.147034,42.623997 231.977829,42.623997 234.030518,42.623997 
	C233.393860,44.668587 232.699844,46.897434 232.005081,49.534664 
z"/>
<path fill="#4C3C30" opacity="1.000000" stroke="none" 
	d="
M100.423111,25.360291 
	C98.460976,24.958858 96.794373,24.264410 95.127762,23.569965 
	C96.072220,22.662954 96.936508,21.099453 97.976219,20.972481 
	C101.049644,20.597143 101.610771,22.477121 100.423111,25.360291 
z"/>
<path fill="#493635" opacity="1.000000" stroke="none" 
	d="
M127.053909,49.774734 
	C126.902206,51.115856 126.751373,52.000256 126.600533,52.884655 
	C126.295670,52.926369 125.990799,52.968086 125.685936,53.009800 
	C125.064819,49.945164 124.443703,46.880527 123.665985,43.043171 
	C123.959923,42.897240 125.121872,42.320351 127.054787,41.360695 
	C127.054787,44.541130 127.054787,46.929569 127.053909,49.774734 
z"/>
<path fill="#473329" opacity="1.000000" stroke="none" 
	d="
M40.762299,26.021088 
	C39.227448,25.212736 37.988117,24.420906 37.071320,23.352352 
	C36.924290,23.180983 38.122005,21.197641 38.870010,21.071493 
	C39.980034,20.884293 41.243572,21.607393 42.441765,21.943018 
	C42.016079,23.277311 41.590393,24.611605 40.762299,26.021088 
z"/>
<path fill="#F2ECE7" opacity="1.000000" stroke="none" 
	d="
M18.634670,9.134994 
	C19.964840,10.263757 20.881111,11.384370 21.797380,12.504984 
	C19.893946,13.349157 17.990511,14.193330 15.531642,15.283837 
	C15.221202,11.845102 13.467733,8.881022 18.634670,9.134994 
z"/>
</svg>